<svg xmlns="http://www.w3.org/2000/svg" viewBox="0 0 2048 2048" style="enable-background:new 0 0 2048 2048" xml:space="preserve"><style>.st20{fill:#542a19}</style><g id="Layer_16"><linearGradient id="SVGID_1_" gradientUnits="userSpaceOnUse" x1="280.28" y1="1024" x2="1767.72" y2="1024"><stop offset="0" style="stop-color:#fedc52"/><stop offset=".995" style="stop-color:#fcb117"/></linearGradient><circle cx="1024" cy="1024" r="743.72" style="fill:url(#SVGID_1_)"/><g style="opacity:.81"><path d="M540.23 770.15c-2.07 0-4.16-.21-6.27-.66-16.21-3.44-26.55-19.38-23.11-35.58 21.98-103.42 83.1-188.9 176.75-247.22 76.03-47.35 171.5-74.41 262.28-74.41.78 0 1.54 0 2.31.01 16.57.08 29.93 13.58 29.85 30.15-.08 16.52-13.5 29.85-30 29.85h-1.93c-130.25 0-337.77 72.7-380.58 274.11-2.98 14.09-15.44 23.75-29.3 23.75z" style="fill:#fff"/></g><path d="M1026.52 1439.13c-43.57 0-86.41-6.78-127.31-20.15-39.81-13.01-77.05-32-110.7-56.44-33.51-24.35-62.67-53.53-86.67-86.75-24.49-33.9-43.06-71.26-55.19-111.04-3.22-10.57 2.73-21.74 13.3-24.96 10.56-3.22 21.74 2.73 24.96 13.3 44.87 147.17 182.15 246.04 341.6 246.04 158.15 0 293.95-98.84 337.93-245.94 3.16-10.58 14.31-16.59 24.89-13.43s16.6 14.31 13.43 24.89c-11.92 39.86-30.14 77.24-54.17 111.09-23.62 33.28-52.35 62.48-85.41 86.81-68.08 50.1-149.92 76.58-236.66 76.58z" style="fill:#542a1a"/><g><path class="st20" d="M1204.44 856.56c11-27.39 31.5-56.01 63.63-57.2 32.39-1.21 53.54 33.17 63.63 59.23 10.11 26.25 52.79 14.85 42.52-11.73-18.29-47.37-51.74-89.59-106.15-91.62-52.9-1.97-88.62 45.89-106.15 89.59-10.64 26.42 32.07 37.8 42.52 11.73zM716.42 856.56c11-27.39 31.49-56.01 63.62-57.2 32.39-1.21 53.55 33.17 63.63 59.23 10.13 26.25 52.78 14.85 42.52-11.73-18.28-47.37-51.74-89.59-106.15-91.62-52.9-1.97-88.6 45.89-106.15 89.59-10.63 26.42 32.06 37.8 42.53 11.73z"/></g></g></svg>